<svg width="60" height="61" viewBox="0 0 60 61" fill="none" xmlns="http://www.w3.org/2000/svg">
<g filter="url(#filter0_d_48_324)">
<rect x="3" y="2.5" width="52" height="52" rx="25" fill="white"/>
<rect x="3.5" y="3" width="51" height="51" rx="24.5" stroke="#5A1740" stroke-opacity="0.16"/>
</g>
<path d="M39.1562 39.75C42.6719 36.4688 44.2344 31 43.2969 25.7656H29.3125V31.5469H37.2812C36.9688 33.4219 35.875 34.9844 34.3125 36L39.1562 39.75Z" fill="#4285F4"/>
<path d="M16.0312 35.1406C17.059 37.1651 18.5329 38.9299 20.3419 40.302C22.1508 41.6741 24.2477 42.6176 26.4743 43.0614C28.701 43.5052 30.9993 43.4378 33.1961 42.8642C35.3929 42.2906 37.4308 41.2257 39.1562 39.75L34.3125 36C30.1719 38.7344 23.2969 37.7188 20.9531 31.3125L16.0312 35.1406Z" fill="#34A853"/>
<path d="M20.954 31.3125C20.329 29.3594 20.329 27.5625 20.954 25.6094L16.0321 21.7812C14.2352 25.375 13.6884 30.4531 16.0321 35.1406L20.954 31.3125Z" fill="#FBBC02"/>
<path d="M20.9531 25.6097C22.6719 20.219 30.0156 17.094 34.9375 21.7034L39.2344 17.4847C33.1406 11.6253 21.2656 11.8597 16.0312 21.7815L20.9531 25.6097Z" fill="#EA4335"/>
<defs>
<filter id="filter0_d_48_324" x="0" y="0.5" width="60" height="60" filterUnits="userSpaceOnUse" color-interpolation-filters="sRGB">
<feFlood flood-opacity="0" result="BackgroundImageFix"/>
<feColorMatrix in="SourceAlpha" type="matrix" values="0 0 0 0 0 0 0 0 0 0 0 0 0 0 0 0 0 0 127 0" result="hardAlpha"/>
<feOffset dx="1" dy="2"/>
<feGaussianBlur stdDeviation="2"/>
<feComposite in2="hardAlpha" operator="out"/>
<feColorMatrix type="matrix" values="0 0 0 0 0 0 0 0 0 0 0 0 0 0 0 0 0 0 0.25 0"/>
<feBlend mode="normal" in2="BackgroundImageFix" result="effect1_dropShadow_48_324"/>
<feBlend mode="normal" in="SourceGraphic" in2="effect1_dropShadow_48_324" result="shape"/>
</filter>
</defs>
</svg>
